<svg aria-hidden="true" style="position: absolute; width: 0; height: 0; overflow: hidden;" version="1.1" xmlns="http://www.w3.org/2000/svg" xmlns:xlink="http://www.w3.org/1999/xlink">
<defs>
<symbol id="icon-codewars" viewBox="0 0 32 32">
<path d="M17.333 16c0 0.736-0.597 1.333-1.333 1.333s-1.333-0.597-1.333-1.333c0-0.736 0.597-1.333 1.333-1.333s1.333 0.597 1.333 1.333z"></path>
<path d="M15.711 16.167c-1.143-1.361-1.386-3.552-0.464-5.267 0.432-0.868 1.143-1.599 1.973-2.119 0.848-0.483 1.83-0.8 2.821-0.77 1.985-0.020 3.903 1.179 4.764 2.906 0.901 1.711 0.691 3.874-0.434 5.25l-0.577-0.333c0.531-1.445 0.328-2.974-0.435-4.083-0.765-1.101-2.025-1.783-3.319-1.755-1.279 0.002-2.545 0.67-3.282 1.773-0.759 1.1-0.963 2.602-0.471 4.063z"></path>
<path d="M16 16.333c-1.751 0.309-3.769-0.575-4.793-2.232-0.536-0.808-0.813-1.79-0.848-2.769 0.006-0.976 0.222-1.985 0.744-2.829 0.975-1.729 2.973-2.791 4.899-2.673 1.932 0.075 3.701 1.338 4.33 3.001l-0.578 0.334c-0.985-1.182-2.411-1.771-3.753-1.665-1.337 0.112-2.557 0.862-3.179 1.997-0.638 1.109-0.692 2.539-0.105 3.729 0.573 1.207 1.772 2.135 3.283 2.439z"></path>
<path d="M16.289 16.167c-0.607 1.671-2.383 2.976-4.33 3.035-0.967 0.060-1.957-0.191-2.821-0.65-0.842-0.493-1.608-1.185-2.078-2.059-1.009-1.709-0.931-3.97 0.135-5.579 1.031-1.635 3.009-2.536 4.764-2.249l0.001 0.667c-1.517 0.262-2.74 1.203-3.318 2.418-0.571 1.213-0.532 2.645 0.14 3.752 0.642 1.107 1.853 1.869 3.177 1.955 1.332 0.108 2.735-0.467 3.754-1.624z"></path>
<path d="M16.289 15.833c1.143 1.361 1.386 3.552 0.464 5.267-0.432 0.868-1.143 1.599-1.973 2.119-0.848 0.483-1.83 0.8-2.821 0.77-1.985 0.020-3.903-1.179-4.764-2.906-0.901-1.711-0.691-3.874 0.434-5.25l0.577 0.333c-0.531 1.445-0.328 2.974 0.435 4.083 0.765 1.101 2.025 1.783 3.319 1.755 1.279-0.002 2.545-0.67 3.282-1.773 0.759-1.1 0.963-2.602 0.471-4.063z"></path>
<path d="M16 15.667c1.751-0.309 3.769 0.575 4.793 2.232 0.536 0.808 0.813 1.79 0.848 2.769-0.006 0.976-0.222 1.985-0.744 2.829-0.975 1.729-2.973 2.791-4.899 2.673-1.932-0.075-3.701-1.338-4.33-3.001l0.577-0.334c0.985 1.182 2.411 1.771 3.753 1.665 1.337-0.112 2.557-0.862 3.179-1.997 0.638-1.109 0.692-2.539 0.105-3.729-0.572-1.208-1.771-2.136-3.283-2.439z"></path>
<path d="M15.711 15.833c0.607-1.671 2.383-2.976 4.33-3.035 0.967-0.060 1.957 0.191 2.821 0.65 0.842 0.493 1.608 1.185 2.078 2.059 1.009 1.709 0.931 3.97-0.135 5.579-1.031 1.635-3.009 2.536-4.764 2.249l-0.001-0.667c1.517-0.262 2.74-1.203 3.318-2.418 0.571-1.213 0.532-2.645-0.14-3.752-0.642-1.107-1.853-1.869-3.177-1.955-1.332-0.108-2.735 0.467-3.754 1.624z"></path>
</symbol>
<symbol id="icon-email" viewBox="0 0 32 32">
<path d="M26.667 5.333h-21.333c-1.467 0-2.652 1.2-2.652 2.667l-0.014 16c0 1.467 1.2 2.667 2.667 2.667h21.333c1.467 0 2.667-1.2 2.667-2.667v-16c0-1.467-1.2-2.667-2.667-2.667zM26.133 11.001l-9.426 5.892c-0.201 0.126-0.446 0.2-0.708 0.2s-0.506-0.075-0.713-0.204l0.006 0.003-9.426-5.892c-0.336-0.201-0.557-0.562-0.557-0.975 0-0.625 0.507-1.132 1.132-1.132 0.233 0 0.449 0.070 0.629 0.19l-0.004-0.003 8.933 5.586 8.933-5.588c0.176-0.118 0.392-0.188 0.624-0.188 0.625 0 1.132 0.507 1.132 1.132 0 0.413-0.221 0.775-0.552 0.972l-0.005 0.003z"></path>
</symbol>
<symbol id="icon-github" viewBox="0 0 32 32">
<path d="M16 5.333c-5.891 0-10.667 4.776-10.667 10.667s4.776 10.667 10.667 10.667c5.891 0 10.667-4.776 10.667-10.667s-4.776-10.667-10.667-10.667zM16 8.889c3.928 0 7.111 3.184 7.111 7.111 0 3.237-2.165 5.965-5.125 6.825-0.12-0.112-0.234-0.272-0.229-0.476 0.012-0.468 0-1.558 0-1.959 0-0.688-0.436-1.176-0.436-1.176s3.414 0.038 3.414-3.605c0-1.405-0.733-2.137-0.733-2.137s0.386-1.501-0.134-2.137c-0.582-0.063-1.625 0.556-2.070 0.845 0 0-0.706-0.289-1.879-0.289s-1.879 0.289-1.879 0.289c-0.445-0.289-1.488-0.908-2.070-0.845-0.52 0.636-0.134 2.137-0.134 2.137s-0.735 0.731-0.735 2.137c0 3.643 3.414 3.605 3.414 3.605s-0.388 0.443-0.428 1.076c-0.228 0.080-0.539 0.176-0.836 0.176-0.716 0-1.26-0.696-1.459-1.017-0.197-0.317-0.601-0.583-0.977-0.583-0.248 0-0.368 0.124-0.368 0.266s0.348 0.24 0.576 0.503c0.483 0.553 0.474 1.797 2.194 1.797 0.204 0 0.57-0.046 0.862-0.086-0.002 0.391-0.006 0.764 0 1.004 0.005 0.185-0.089 0.332-0.196 0.442-2.893-0.901-4.994-3.601-4.994-6.791 0-3.928 3.184-7.111 7.111-7.111z"></path>
</symbol>
<symbol id="icon-linkedin" viewBox="0 0 32 32">
<path d="M11.887 6c-5.459 0-5.887 0.427-5.887 5.887v8.227c0 5.459 0.428 5.887 5.887 5.887h8.227c5.459 0 5.887-0.427 5.887-5.887v-8.227c0-5.46-0.427-5.887-5.887-5.887zM10.584 8h10.832c2.396 0 2.584 0.188 2.584 2.584v10.832c0 2.396-0.188 2.584-2.584 2.584h-10.832c-2.396 0-2.584-0.188-2.584-2.584v-10.832c0-2.396 0.188-2.584 2.584-2.584zM11.251 9.252c-0.815 0-1.475 0.66-1.475 1.474s0.66 1.475 1.475 1.475c0.813 0 1.473-0.661 1.473-1.475 0-0.813-0.66-1.474-1.473-1.474zM18.967 13.161c-1.23 0-2.055 0.675-2.393 1.314h-0.035v-1.111h-2.425v8.136h2.526v-4.025c0-1.061 0.203-2.089 1.519-2.089 1.297 0 1.313 1.215 1.313 2.158v3.956h2.527v-4.463c0-2.191-0.473-3.876-3.033-3.876zM9.986 13.364v8.136h2.528v-8.136z"></path>
</symbol>
<symbol id="icon-smartphone" viewBox="0 0 32 32">
<path d="M23 0h-14c-1.654 0-3 1.346-3 3v26c0 1.654 1.346 3 3 3h14c1.654 0 3-1.346 3-3v-26c0-1.654-1.346-3-3-3zM9 2h14c0.552 0 1 0.448 1 1v21h-16v-21c0-0.552 0.448-1 1-1zM23 30h-14c-0.552 0-1-0.448-1-1v-3h16v3c0 0.552-0.448 1-1 1z"></path>
<path d="M10.707 27.478c0.391 0.365 0.391 0.956 0 1.321s-1.024 0.365-1.414 0c-0.391-0.365-0.391-0.956 0-1.321s1.024-0.365 1.414 0z"></path>
</symbol>
<symbol id="icon-telegram" viewBox="0 0 32 32">
<path d="M26.070 3.996c-0.336 0.016-0.652 0.113-0.934 0.223h-0.004c-0.285 0.113-1.641 0.684-3.699 1.547-2.059 0.867-4.73 1.992-7.383 3.109-5.297 2.23-10.504 4.426-10.504 4.426l0.063-0.023c0 0-0.359 0.117-0.734 0.375-0.191 0.125-0.402 0.297-0.586 0.566s-0.332 0.684-0.277 1.109c0.090 0.723 0.559 1.156 0.895 1.395 0.34 0.242 0.664 0.355 0.664 0.355h0.008l4.883 1.645c0.219 0.703 1.488 4.875 1.793 5.836 0.18 0.574 0.355 0.934 0.574 1.207 0.105 0.141 0.23 0.258 0.379 0.352 0.059 0.035 0.121 0.063 0.184 0.086 0.020 0.012 0.039 0.016 0.063 0.020l-0.051-0.012c0.016 0.004 0.027 0.016 0.039 0.020 0.039 0.012 0.066 0.016 0.117 0.023 0.773 0.234 1.395-0.246 1.395-0.246l0.035-0.027 2.883-2.625 4.832 3.707 0.109 0.047c1.008 0.441 2.027 0.195 2.566-0.238 0.543-0.438 0.754-0.996 0.754-0.996l0.035-0.090 3.734-19.129c0.105-0.473 0.133-0.914 0.016-1.344s-0.418-0.832-0.781-1.047c-0.367-0.219-0.73-0.285-1.066-0.27zM25.969 6.047c-0.004 0.063 0.008 0.055-0.020 0.176v0.012l-3.699 18.93c-0.016 0.027-0.043 0.086-0.117 0.145-0.078 0.063-0.141 0.102-0.465-0.027l-5.91-4.531-3.57 3.254 0.75-4.789c0 0 9.258-8.629 9.656-9s0.266-0.449 0.266-0.449c0.027-0.453-0.602-0.133-0.602-0.133l-12.176 7.543-0.004-0.020-5.836-1.969c-0.004 0-0.012-0.004-0.016-0.004 0.004 0 0.031-0.012 0.031-0.012l0.031-0.016 0.031-0.012c0 0 5.211-2.195 10.508-4.426 2.652-1.117 5.324-2.242 7.379-3.109 2.055-0.863 3.574-1.496 3.66-1.531 0.082-0.031 0.043-0.031 0.102-0.031z"></path>
</symbol>
</defs>
</svg>
